<?xml version="1.0" encoding="UTF-8" standalone="no"?>
<!-- Created with Inkscape (http://www.inkscape.org/) -->

<svg
   xmlns:dc="http://purl.org/dc/elements/1.1/"
   xmlns:cc="http://creativecommons.org/ns#"
   xmlns:rdf="http://www.w3.org/1999/02/22-rdf-syntax-ns#"
   xmlns:svg="http://www.w3.org/2000/svg"
   xmlns="http://www.w3.org/2000/svg"
   xmlns:sodipodi="http://sodipodi.sourceforge.net/DTD/sodipodi-0.dtd"
   xmlns:inkscape="http://www.inkscape.org/namespaces/inkscape"
   width="720"
   height="720"
   id="svg1"
   sodipodi:version="0.32"
   inkscape:version="0.48.4 r9939"
   sodipodi:docname="talug.svg"
   version="1.1"
   inkscape:export-filename="/home/visage/Pictures/vector/talug.png"
   inkscape:export-xdpi="16"
   inkscape:export-ydpi="16">
  <defs
     id="defs3">
    <linearGradient
       id="linearGradient7761">
      <stop
         style="stop-color:#000000;stop-opacity:1.0000000;"
         offset="0.0000000"
         id="stop7762" />
      <stop
         style="stop-color:#000000;stop-opacity:0;"
         offset="1"
         id="stop7763" />
    </linearGradient>
  </defs>
  <sodipodi:namedview
     id="base"
     pagecolor="#ffffff"
     bordercolor="#666666"
     borderopacity="1.0"
     inkscape:pageopacity="0.0"
     inkscape:pageshadow="2"
     inkscape:zoom="0.67696283"
     inkscape:cx="517.76013"
     inkscape:cy="370.43417"
     inkscape:current-layer="svg1"
     inkscape:window-width="1680"
     inkscape:window-height="982"
     inkscape:window-x="0"
     inkscape:window-y="25"
     showgrid="false"
     inkscape:window-maximized="1" />
  <metadata
     id="metadata4">
    <rdf:RDF>
      <cc:Work
         rdf:about="">
        <dc:format>image/svg+xml</dc:format>
        <dc:type
           rdf:resource="http://purl.org/dc/dcmitype/StillImage" />
        <dc:title></dc:title>
      </cc:Work>
    </rdf:RDF>
  </metadata>
  <g
     inkscape:label="Layer 1"
     inkscape:groupmode="layer"
     id="layer1"
     transform="translate(0,-332.36218)" />
  <g
     id="g10282"
     transform="translate(-85.792098,-279.10949)">
    <g
       id="g9656"
       transform="matrix(0.985887,0,0,0.985887,19.11947,34.24773)"
       style="opacity:0.70652173;fill:#b2b2b2;fill-opacity:1">
      <g
         id="g9657">
        <path
           d="m 219.74543,956.70554 c -11.97549,-3.9925 -25.03967,-8.3906 -29.03151,-9.7733 -3.99183,-1.3828 17.57023,-10.9312 47.91567,-21.2188 30.34545,-10.2876 56.78537,-17.7085 58.75539,-16.491 -0.3149,-40.88994 -12.62782,-17.05861 9.22895,-44.4779 4.7835,-5.7637 -5.18852,-13.9191 -12.58178,-33.1856 -2.57727,-6.7163 -1.69083,-13.3916 -1.36791,-39.8095 0.38282,-31.318 5.53968,-49.9771 11.25605,-40.7278 1.97356,3.1933 5.6152,4.5533 8.09254,3.0222 2.62414,-1.6218 4.50424,12.085 4.50424,32.8379 0,32.4218 1.38333,37.5028 15.39919,56.5614 8.50409,11.5637 24.21127,25.0839 35.07972,30.1954 l 19.68054,9.2558 -23.18197,-1.471 c -20.51806,-1.302 -23.49169,-0.237 -25.87728,9.2679 -1.48243,5.9065 -5.74774,13.2723 -9.47847,16.3686 -18.02969,14.9633 7.48469,36.55 -1.50074,27.5645 -8.80983,-8.8098 -12.8245,-17.1915 -4.73376,-35.5186 11.16205,-25.2842 10.91692,-31.2625 -0.70962,-17.3065 -5.2339,6.2826 -9.51619,15.4862 -9.51619,20.4525 0,12.2382 -15.75141,21.3774 -52.96435,30.7308 -36.84986,9.262 -39.32503,10.9037 -22.72242,15.0707 7.07385,1.7754 22.06393,-0.0921 34.35507,-4.2801 14.3135,-4.8771 22.85387,-5.7335 24.85683,-2.4927 4.02053,6.5054 -1.74099,11.261 -21.74617,17.9494 -20.44399,6.8351 -26.49153,6.5509 -53.71202,-2.5243 z m 83.24356,-18.9602 c 2.76791,-10.5845 10.33748,-9.3033 17.88151,-0.2133 4.40503,5.3077 3.17645,7.1248 -6.0039,8.8797 -9.31226,1.7801 -13.75108,-1.5022 -11.87761,-8.6664 z m 211.57779,-8.8356 c 0,-2.3508 0.47819,-12.7995 -2.46352,-25.0279 -4.37663,-18.1933 -3.03639,-17.4073 -19.74948,-11.5812 -7.94049,2.7681 -40.84361,9.63354 -69.92645,8.87344 l -52.87787,-1.3821 48.75116,-5.2464 c 60.5556,-6.5167 84.60222,-21.58764 103.85622,-51.73924 18.82833,-19.8584 19.14531,-93.8093 24.7657,-101.1759 6.19642,-8.1216 7.14896,-5.7527 11.29054,0.5236 8.56927,12.986 -5.46545,73.72418 -10.94513,99.88408 19.39832,24.51784 42.71735,48.74222 75.64198,65.94562 l 29.88865,15.6171 -25.86692,1.4786 c -24.6386,1.4084 -26.6395,0.6042 -42.13617,-16.935 -9.9849,-11.301 -48.92228,-48.7962 -61.13576,-36.5828 -9.59758,9.5976 -9.59636,9.6589 0.58639,29.6187 9.87178,19.3503 10.97871,20.0012 34.01287,20.0012 13.09496,0 41.43177,6.1636 43.0765,8.8248 1.89285,3.0627 -26.71041,0.8524 -49.86159,0.8524 -20.11621,0 -36.90712,0.4018 -36.90712,-1.949 z M 302.85309,738.52504 c -2.38002,-4.6571 -5.63268,-15.3661 -7.22813,-23.7978 -2.8471,-15.0463 9.03385,-24.1639 9.03385,-32.8683 0,-7.0256 -4.74927,-22.0605 -7.30589,-30.9749 -17.4797,-67.7673 -17.35221,-62.6426 -11.28586,-73.2857 14.10333,-12.3963 41.77535,-32.943 62.28678,-66.6363 17.08579,-23.2107 23.57871,-40.9722 23.23864,-49.0502 -0.28924,-6.8707 -1.22483,-24.4676 -2.07907,-39.1043 -1.0128,-17.3533 1.28184,-33.1307 6.59532,-45.3478 4.48167,-10.3046 8.1485,-20.3204 8.1485,-22.2573 0,-1.9369 6.54575,-12.5578 14.5461,-23.602 14.03615,-19.3763 16.42431,-23.8386 42.26027,-23.8386 16.42636,0 32.77339,7.2331 43.78698,12.7489 9.87356,4.9448 23.89974,10.4196 31.16929,12.1663 18.99332,4.5636 45.38756,24.0721 44.82119,36.917 -14.75671,1.2688 -73.73882,-8.5788 -68.66334,41.8422 -3.20425,8.3501 23.54927,91.7109 65.88325,133.6874 33.33086,35.0888 33.49039,35.3873 34.69588,64.9244 0.82212,20.1434 -1.15473,33.3021 -6.15512,40.9715 -11.29528,17.324 -32.01295,55.7451 -37.89588,65.716 l -10.69623,18.1287 -9.63897,-44.2773 c -6.39765,-22.1601 -12.20611,-43.2183 -16.15573,-50.856 -15.683,-24.7442 -13.63715,-32.6541 -2.15454,-49.9923 14.79651,-22.342 12.26454,-45.2844 -9.67716,-87.6857 -10.78314,-20.8379 -19.35433,-44.2741 -19.35433,-52.9205 -1.32874,-45.1453 -17.01348,-20.5388 -27.89381,-23.9853 -31.93402,-3.485 -37.79875,-19.9169 -40.37292,9.0848 5.98494,41.0619 3.51464,50.0519 -1.18311,51.5429 -4.69776,1.491 -17.58449,17.5279 -26.20115,33.2016 0,0 -23.75611,31.9626 -2.49002,62.2947 21.62114,41.2049 11.71836,43.9449 3.6221,59.7769 -4.62132,9.0369 -58.95656,91.2188 -64.79171,98.2497 -8.25236,9.9435 -13.49851,9.7286 -18.86518,-0.7727 z m 144.7821,-394.1314 c 5.65569,-3.655 -1.3266,-3.378 -11.69538,-3.4357 -7.31836,-0.0408 -14.30266,0.1101 -14.30266,2.7713 0,6.118 3.57596,10.1042 25.99804,0.6644 z"
           id="path9658"
           sodipodi:nodetypes="cccccccccccccccccccccccccccccccccccccccccccccccccccccccccccccccccccccccccccccccccccccccc"
           inkscape:connector-curvature="0" />
        <path
           style="opacity:0.6956522"
           d="m 581.22229,591.27539 c 2.88333,6.71925 3.64742,14.13132 4.3343,21.34838 0.65609,6.89346 1.42479,13.93458 0.41029,20.7877 -0.36994,2.49897 -1.9495,-1.95714 -2.20762,-2.8943 -2.97207,-10.79071 -4.18967,-22.14956 -8.71027,-32.44302 -4.11886,-9.37867 -9.95478,-17.89676 -14.94139,-26.83446 -2.82455,-5.06256 -6.56055,-9.90152 -7.98231,-15.47727 -0.64352,-2.52372 3.25494,1.65778 4.20031,2.65661 8.06484,8.52087 15.39253,17.8083 21.87593,27.61162 1.11291,1.68279 2.22463,3.38946 3.02076,5.24474 z"
           id="path9659"
           sodipodi:nodetypes="csssssssss"
           inkscape:connector-curvature="0" />
      </g>
      <path
         style="opacity:0.47826083;stroke:none"
         d="m 304.55377,685.22916 c 13.95177,0 27.91567,5.77667 41.86744,5.77667 -21.25984,2.67794 -12.38078,4.54012 -28.6112,1.50005 -16.25918,-3.04546 -3.4666,0.6553 -17.41837,0.6553 2.35183,-3.24964 2.65062,-5.01109 4.16213,-7.93202 z"
         id="path9660"
         sodipodi:nodetypes="cczcc"
         inkscape:connector-curvature="0" />
    </g>
    <g
       id="g7772">
      <g
         id="g7137">
        <path
           d="m 219.74543,956.70554 c -11.97549,-3.9925 -25.03967,-8.3906 -29.03151,-9.7733 -3.99183,-1.3828 17.57023,-10.9312 47.91567,-21.2188 30.34545,-10.2876 56.78537,-17.7085 58.75539,-16.491 -0.3149,-40.88994 -12.62782,-17.05861 9.22895,-44.4779 4.7835,-5.7637 -5.18852,-13.9191 -12.58178,-33.1856 -2.57727,-6.7163 -1.69083,-13.3916 -1.36791,-39.8095 0.38282,-31.318 5.53968,-49.9771 11.25605,-40.7278 1.97356,3.1933 5.6152,4.5533 8.09254,3.0222 2.62414,-1.6218 4.50424,12.085 4.50424,32.8379 0,32.4218 1.38333,37.5028 15.39919,56.5614 8.50409,11.5637 24.21127,25.0839 35.07972,30.1954 l 19.68054,9.2558 -23.18197,-1.471 c -20.51806,-1.302 -23.49169,-0.237 -25.87728,9.2679 -1.48243,5.9065 -5.74774,13.2723 -9.47847,16.3686 -18.02969,14.9633 7.48469,36.55 -1.50074,27.5645 -8.80983,-8.8098 -12.8245,-17.1915 -4.73376,-35.5186 11.16205,-25.2842 10.91692,-31.2625 -0.70962,-17.3065 -5.2339,6.2826 -9.51619,15.4862 -9.51619,20.4525 0,12.2382 -15.75141,21.3774 -52.96435,30.7308 -36.84986,9.262 -39.32503,10.9037 -22.72242,15.0707 7.07385,1.7754 22.06393,-0.0921 34.35507,-4.2801 14.3135,-4.8771 22.85387,-5.7335 24.85683,-2.4927 4.02053,6.5054 -1.74099,11.261 -21.74617,17.9494 -20.44399,6.8351 -26.49153,6.5509 -53.71202,-2.5243 z m 83.24356,-18.9602 c 2.76791,-10.5845 10.33748,-9.3033 17.88151,-0.2133 4.40503,5.3077 3.17645,7.1248 -6.0039,8.8797 -9.31226,1.7801 -13.75108,-1.5022 -11.87761,-8.6664 z m 211.57779,-8.8356 c 0,-2.3508 0.47819,-12.7995 -2.46352,-25.0279 -4.37663,-18.1933 -3.03639,-17.4073 -19.74948,-11.5812 -7.94049,2.7681 -40.84361,9.63354 -69.92645,8.87344 l -52.87787,-1.3821 48.75116,-5.2464 c 60.5556,-6.5167 84.60222,-21.58764 103.85622,-51.73924 18.82833,-19.8584 19.14531,-93.8093 24.7657,-101.1759 6.19642,-8.1216 7.14896,-5.7527 11.29054,0.5236 8.56927,12.986 -5.46545,73.72418 -10.94513,99.88408 19.39832,24.51784 42.71735,48.74222 75.64198,65.94562 l 29.88865,15.6171 -25.86692,1.4786 c -24.6386,1.4084 -26.6395,0.6042 -42.13617,-16.935 -9.9849,-11.301 -48.92228,-48.7962 -61.13576,-36.5828 -9.59758,9.5976 -9.59636,9.6589 0.58639,29.6187 9.87178,19.3503 10.97871,20.0012 34.01287,20.0012 13.09496,0 41.43177,6.1636 43.0765,8.8248 1.89285,3.0627 -26.71041,0.8524 -49.86159,0.8524 -20.11621,0 -36.90712,0.4018 -36.90712,-1.949 z M 302.85309,738.52504 c -2.38002,-4.6571 -5.63268,-15.3661 -7.22813,-23.7978 -2.8471,-15.0463 9.03385,-24.1639 9.03385,-32.8683 0,-7.0256 -4.74927,-22.0605 -7.30589,-30.9749 -17.4797,-67.7673 -17.35221,-62.6426 -11.28586,-73.2857 14.10333,-12.3963 41.77535,-32.943 62.28678,-66.6363 17.08579,-23.2107 23.57871,-40.9722 23.23864,-49.0502 -0.28924,-6.8707 -1.22483,-24.4676 -2.07907,-39.1043 -1.0128,-17.3533 1.28184,-33.1307 6.59532,-45.3478 4.48167,-10.3046 8.1485,-20.3204 8.1485,-22.2573 0,-1.9369 6.54575,-12.5578 14.5461,-23.602 14.03615,-19.3763 16.42431,-23.8386 42.26027,-23.8386 16.42636,0 32.77339,7.2331 43.78698,12.7489 9.87356,4.9448 23.89974,10.4196 31.16929,12.1663 18.99332,4.5636 45.38756,24.0721 44.82119,36.917 -14.75671,1.2688 -73.73882,-8.5788 -68.66334,41.8422 -3.20425,8.3501 23.54927,91.7109 65.88325,133.6874 33.33086,35.0888 33.49039,35.3873 34.69588,64.9244 0.82212,20.1434 -1.15473,33.3021 -6.15512,40.9715 -11.29528,17.324 -32.01295,55.7451 -37.89588,65.716 l -10.69623,18.1287 -9.63897,-44.2773 c -6.39765,-22.1601 -12.20611,-43.2183 -16.15573,-50.856 -15.683,-24.7442 -13.63715,-32.6541 -2.15454,-49.9923 14.79651,-22.342 12.26454,-45.2844 -9.67716,-87.6857 -10.78314,-20.8379 -19.35433,-44.2741 -19.35433,-52.9205 -1.32874,-45.1453 -17.01348,-20.5388 -27.89381,-23.9853 -31.93402,-3.485 -37.79875,-19.9169 -40.37292,9.0848 5.98494,41.0619 3.51464,50.0519 -1.18311,51.5429 -4.69776,1.491 -17.58449,17.5279 -26.20115,33.2016 0,0 -23.75611,31.9626 -2.49002,62.2947 21.62114,41.2049 11.71836,43.9449 3.6221,59.7769 -4.62132,9.0369 -58.95656,91.2188 -64.79171,98.2497 -8.25236,9.9435 -13.49851,9.7286 -18.86518,-0.7727 z m 144.7821,-394.1314 c 5.65569,-3.655 -1.3266,-3.378 -11.69538,-3.4357 -7.31836,-0.0408 -14.30266,0.1101 -14.30266,2.7713 0,6.118 3.57596,10.1042 25.99804,0.6644 z"
           id="path1513"
           sodipodi:nodetypes="cccccccccccccccccccccccccccccccccccccccccccccccccccccccccccccccccccccccccccccccccccccccc"
           style="fill:#000000;fill-opacity:1"
           inkscape:connector-curvature="0" />
        <path
           style="opacity:0.6956522;fill:#f0ffff;fill-opacity:1"
           d="m 581.22229,591.27539 c 2.88333,6.71925 3.64742,14.13132 4.3343,21.34838 0.65609,6.89346 1.42479,13.93458 0.41029,20.7877 -0.36994,2.49897 -1.9495,-1.95714 -2.20762,-2.8943 -2.97207,-10.79071 -4.18967,-22.14956 -8.71027,-32.44302 -4.11886,-9.37867 -9.95478,-17.89676 -14.94139,-26.83446 -2.82455,-5.06256 -6.56055,-9.90152 -7.98231,-15.47727 -0.64352,-2.52372 3.25494,1.65778 4.20031,2.65661 8.06484,8.52087 15.39253,17.8083 21.87593,27.61162 1.11291,1.68279 2.22463,3.38946 3.02076,5.24474 z"
           id="path2761"
           sodipodi:nodetypes="csssssssss"
           inkscape:connector-curvature="0" />
      </g>
      <path
         style="opacity:0.47826083;fill:#ffffff;fill-opacity:1;stroke:none"
         d="m 304.55377,685.22916 c 13.95177,0 27.91567,5.77667 41.86744,5.77667 -21.25984,2.67794 -12.38078,4.54012 -28.6112,1.50005 -16.25918,-3.04546 -3.4666,0.6553 -17.41837,0.6553 2.35183,-3.24964 2.65062,-5.01109 4.16213,-7.93202 z"
         id="rect5265"
         sodipodi:nodetypes="cczcc"
         inkscape:connector-curvature="0" />
    </g>
  </g>
</svg>
